#N canvas 379 25 921 533 12;
#X obj 439 16 cnv 19 425 285 empty empty Select\ Scale 20 12 0 24 #c6ffc7 #404040 0;
#X text 573 49 pentatonic;
#X text 623 79 major;
#X text 633 109 harmonic minor;
#X text 643 139 melakarta 1;
#X text 653 169 melakarta 2;
#X text 733 199 chromatic;
#X text 773 229 custom;
#X obj 459 265 s \$0-scale;
#X msg 459 56 0 0 2 4 7 9 12;
#X msg 479 116 0 0 2 3 5 7 8 11 12;
#X msg 489 146 0 0 1 4 6 7 9 10 12;
#X msg 499 176 0 0 1 2 5 7 9 11 12;
#X msg 509 206 0 0 1 2 3 4 5 6 7 8 9 10 11 12;
#X msg 469 86 0 0 2 4 5 7 9 11 12;
#X msg 519 236 0 0 1 2 5 6 7 10 11 12 15 16 17 20;
#X msg 52 66 0, f 6;
#X obj 52 85 s \$0-vol2;
#N canvas 544 208 592 545 gen_scale_seq 0;
#X obj 31 31 tgl 19 0 empty \$0-run empty 0 -10 0 12 #fcfcfc #000000 #000000 0 1;
#X obj 31 60 metro 250;
#X obj 31 89 random 6;
#X msg 31 258 \$1 1;
#X obj 31 287 array get \$0-scale;
#X obj 31 336 +;
#X obj 66 336 nbx 5 17 -1e+37 1e+37 0 1 empty \$0-transpose transpose 0 -10 0 12 #fcfcfc #000000 #000000 36 256;
#X obj 31 365 mtof;
#X obj 31 394 osc~;
#X obj 31 443 *~;
#X obj 31 501 dac~;
#X msg 124 58 6;
#X msg 164 58 8;
#X obj 244 58 nbx 5 17 -1e+37 1e+37 0 1 empty \$0-custom_scale_length empty 0 -10 0 12 #fcfcfc #000000 #000000 10 256;
#N canvas 0 22 450 278 (subpatch) 0;
#X array \$0-scale 13 float 3;
#A 0 0 2 4 5 7 9 11 12 8 9 10 11 12;
#X coords 0 24 13 0 200 140 1 0 0;
#X restore 357 314 graph;
#X msg 204 58 13;
#X obj 218 240 nbx 5 17 -1e+37 1e+37 0 0 empty empty empty 0 -10 0 12 #fcfcfc #000000 #000000 0 256;
#X obj 66 443 *~;
#X obj 124 443 hsl 162 19 0 1 0 1 empty \$0-volume empty -2 -10 0 12 #fcfcfc #000000 #000000 0 1;
#X obj 152 368 vline~;
#X msg 152 339 1 5;
#X obj 192 280 delay 5;
#X obj 31 472 rev1~;
#X obj 80 472 nbx 5 17 -1e+37 1e+37 0 1 empty \$0-reverb empty 0 -10 0 12 #fcfcfc #000000 #000000 5 256;
#X obj 208 211 + 1;
#X msg 192 338 0 \$1;
#X obj 192 309 f;
#X obj 95 212 change;
#X obj 85 241 t b b;
#X obj 208 182 random 2500;
#X obj 85 183 route 0 1;
#X obj 85 125 tgl 19 0 empty \$0-filter_repeats empty 0 -10 0 12 #fcfcfc #000000 #000000 0 1;
#X obj 85 154 pack f f;
#X obj 114 125 t b f;
#X obj 124 29 select 0 1 2;
#X floatatom 124 1 5 0 0 0 - \$0-scale_length - 0;
#X obj 282 155 nbx 5 17 -1e+37 1e+37 0 1 empty \$0-rate empty 0 -10 0 12 #fcfcfc #000000 #000000 2500 256;
#X connect 0 0 1 0;
#X connect 1 0 2 0;
#X connect 1 0 29 0;
#X connect 2 0 3 0;
#X connect 2 0 33 0;
#X connect 3 0 4 0;
#X connect 4 0 5 0;
#X connect 5 0 7 0;
#X connect 6 0 5 1;
#X connect 7 0 8 0;
#X connect 8 0 9 0;
#X connect 9 0 22 0;
#X connect 11 0 2 1;
#X connect 12 0 2 1;
#X connect 13 0 2 1;
#X connect 15 0 2 1;
#X connect 16 0 1 1;
#X connect 17 0 9 1;
#X connect 18 0 17 1;
#X connect 19 0 17 0;
#X connect 20 0 19 0;
#X connect 21 0 26 0;
#X connect 22 0 10 0;
#X connect 22 0 10 1;
#X connect 23 0 22 1;
#X connect 24 0 16 0;
#X connect 24 0 26 1;
#X connect 25 0 19 0;
#X connect 26 0 25 0;
#X connect 27 0 28 0;
#X connect 28 0 21 0;
#X connect 28 1 20 0;
#X connect 29 0 24 0;
#X connect 30 0 28 0;
#X connect 30 1 27 0;
#X connect 31 0 32 0;
#X connect 32 0 30 0;
#X connect 33 0 32 0;
#X connect 33 1 32 1;
#X connect 34 0 11 0;
#X connect 34 1 12 0;
#X connect 34 2 15 0;
#X connect 35 0 34 0;
#X connect 36 0 29 1;
#X restore 13 331 pd gen_scale_seq;
#X obj 13 16 cnv 19 425 285 empty empty Settings 20 12 0 24 #c6feff #404040 0;
#X obj 153 143 hradio 32 1 1 3 \$0-scale_length empty Scale\ Length 0 -10 0 12 #fcfcfc #000000 #000000 1;
#X obj 153 209 nbx 5 17 -1e+37 1e+37 0 1 \$0-custom_scale_length empty Custom\ Scale\ Length 0 -10 0 12 #fcfcfc #000000 #000000 10 256;
#X obj 162 152 cnv 19 19 19 empty empty 6 5 10 0 12 #c6feff #404040 0;
#X obj 194 152 cnv 19 19 19 empty empty 8 5 10 0 12 #c6feff #404040 0;
#X obj 226 152 cnv 19 19 19 empty empty 13 2 10 0 12 #c6feff #404040 0;
#X obj 57 143 tgl 32 0 \$0-run empty Run 0 -10 0 12 #fcfcfc #000000 #000000 0 1;
#X obj 57 209 tgl 32 1 \$0-filter_repeats empty No\ Repeats 0 -10 0 12 #fcfcfc #000000 #000000 0 1;
#X obj 317 143 nbx 5 17 -1e+37 1e+37 0 1 \$0-transpose empty transpose 0 -10 0 12 #fcfcfc #000000 #000000 36 256;
#X obj 317 200 nbx 5 17 -1e+37 70 0 1 \$0-reverb empty Reverb 0 -10 0 12 #fcfcfc #000000 #000000 5 256;
#X obj 113 65 hsl 162 22 0 1 0 1 \$0-volume \$0-vol2 Volume 0 -10 0 12 #fcfcfc #000000 #000000 0 1;
#X obj 52 65 cnv 19 48 22 empty empty Mute 10 12 0 12 #ff0400 #feffc6 0;
#X obj 317 86 nbx 5 17 250 14000 0 1 \$0-rate empty Rate 0 -10 0 12 #fcfcfc #000000 #000000 2500 256;
#X connect 9 0 8 0;
#X connect 10 0 8 0;
#X connect 11 0 8 0;
#X connect 12 0 8 0;
#X connect 13 0 8 0;
#X connect 14 0 8 0;
#X connect 15 0 8 0;
#X connect 16 0 17 0;
